<svg width="422" height="422" viewBox="0 0 422 422" fill="none" xmlns="http://www.w3.org/2000/svg">
<rect width="422" height="422" rx="65" fill="#DEDC00"/>
<path d="M336.969 219.867L337.469 219.983C362.111 234.337 387.562 264.795 370.833 294.322C350.618 329.99 304.095 332.7 267.583 332.941C231.932 333.191 196.081 329.56 160.992 323.469C140.128 319.868 119.329 314.748 99.6157 306.812C81.3494 299.452 61.1855 288.918 50.3642 271.783C32.6041 243.687 45.3423 209.686 74.9671 196.818L76.5378 196.655C75.6654 189.07 77.2906 181.25 81.2085 174.49C99.6409 142.579 147.58 139.959 180.038 139.638C192.741 118.572 215.226 102.415 237.657 95.3544C244.684 93.1519 256.514 89.8603 263.005 94.9157C271.674 101.724 264.391 115.133 260.221 122.361C254.588 132.174 245.373 141.73 242.571 152.968C244.235 153.019 336.899 156.044 339.163 204.653C339.437 210.277 338.649 215.32 336.959 219.913L336.969 219.867Z" fill="#D38E49"/>
<path d="M173.482 153.215C175.59 151.979 175.823 148.294 176.488 146.052C177.153 143.809 177.534 141.549 178.108 139.285C172.347 139.337 153.648 142.088 147.915 142.433C148.222 143.176 160.914 143.392 161.718 143.435C173.795 144.036 168.112 156.33 173.493 153.17L173.482 153.215Z" fill="#C47B38"/>
<path d="M243.613 153.018C241.276 159.571 242.25 167.131 246.974 172.16C251.698 177.189 259.06 179.522 265.812 180.564C271.816 181.527 277.512 180.31 283.317 178.83C290.441 177.034 297.57 174.807 304.381 171.883C306.719 170.892 308.998 169.744 311.172 168.427C285.398 155.44 250.262 153.269 243.624 152.973L243.613 153.018Z" fill="#C47B38"/>
<path d="M171.738 156.597C171.738 156.597 171.738 156.597 171.728 156.643C171.696 156.779 171.587 157.042 171.51 157.168C171.317 157.794 171.204 158.487 171.147 159.145C170.881 160.905 170.798 162.707 170.76 164.52C170.691 167.907 170.514 171.558 171.338 174.817C172.464 179.249 171.973 185.895 174.983 189.231C178.212 192.857 181.466 196.585 184.884 200.016C191.25 206.433 205.394 210.918 214.313 212.942C224.232 215.199 237.79 212.308 247.346 209.735C238.298 209.502 222.11 205.981 214.318 201.581C208.73 198.414 203.925 193.941 200.832 188.285C197.47 182.135 196.233 175.088 196.696 168.149C197.607 154.123 205.697 141.572 215.017 131.561C225.738 120.054 238.737 110.706 252.198 102.664C256.088 100.356 260.002 98.149 264.042 96.0195C263.696 95.6516 263.305 95.2731 262.858 94.9295C256.424 89.8392 244.537 93.1657 237.51 95.3682C215.338 102.345 193.154 118.236 180.389 138.952C180.448 139.11 180.451 139.302 180.398 139.53C179.459 142.955 178.974 146.486 177.716 149.837C176.729 152.436 175.074 155.023 172.327 155.919C172.253 156.238 171.997 156.514 171.672 156.678L171.738 156.597Z" fill="#C47B38"/>
<path d="M336.969 219.867C337.858 217.485 338.45 214.938 338.825 212.292C321.604 218.167 305.368 226.811 288.442 233.473C277.309 237.885 265.677 241.558 253.727 243.096C242.815 244.492 231.779 245.188 220.793 245.464C196.84 246.083 172.22 244.629 149.108 237.917C138.655 234.865 128.659 230.673 119.628 224.596C110.23 218.242 101.432 210.541 95.7437 200.59C93.1211 196.002 91.0798 190.974 90.1335 185.768C89.3468 181.319 89.2145 176.734 89.4457 172.233C89.6009 169.297 89.8967 165.962 90.6121 162.677C86.99 166.102 83.7938 169.961 81.2086 174.49C78.2377 179.649 76.6123 185.407 76.3685 191.199C77.4808 197.546 79.4081 205.951 82.9282 211.419C87.8997 219.094 93.9111 223.942 101.422 229.139C117.039 239.862 136.241 246.289 154.695 249.954C167.698 252.543 181.876 255.646 194.989 257.35C209.452 259.224 206.896 260.74 221.488 260.822C234.982 260.889 265.42 257.51 278.656 254.977C278.86 254.305 279.745 253.792 280.479 254.346C280.559 254.412 280.685 254.489 280.765 254.556C280.968 254.507 281.171 254.458 281.364 254.455C294.201 251.781 306.973 247.941 317.839 240.351C325.728 234.849 332.224 227.921 337.791 220.25C337.654 220.218 337.539 220.095 337.413 220.018L336.913 219.902L336.969 219.867Z" fill="#C47B38"/>
<path d="M290.63 255.602C294.538 255.071 298.37 254.044 302.215 253.164C309.556 251.466 317.105 250.727 324.497 249.424C332.341 248.035 340.136 246.442 347.807 244.149C352.335 242.804 356.689 241.179 360.959 239.295C354.752 232.196 347.26 226.093 339.768 221.428C332.298 231.725 323.267 240.701 311.788 246.807C305.998 249.872 299.887 252.048 293.634 253.807C290.817 254.59 288.022 255.283 285.181 255.965C287.017 256.104 288.983 255.89 290.665 255.658L290.63 255.602Z" fill="#C47B38"/>
<path d="M65.5595 209.062C65.5659 209.447 65.6177 209.842 65.6801 210.192C66.6371 217.414 72.5143 223.046 79.7209 224.193C85.5429 225.114 91.3755 225.99 97.1203 227.037C96.3518 226.427 95.6182 225.873 94.8952 225.274C87.8257 219.412 81.6853 212.233 77.7993 203.804C76.7432 201.545 75.9007 199.192 75.2505 196.836L74.9567 196.863C72.0796 198.112 69.342 199.586 66.7546 201.238C65.8447 203.711 65.3681 206.381 65.5595 209.062Z" fill="#C47B38"/>
<path d="M375.873 279.434C374.237 281.115 372.555 282.785 370.769 284.288C362.265 291.612 352.047 296.621 341.298 299.588C327.574 303.399 313.419 303.706 299.297 304.691C280.642 306.014 261.924 307.609 243.285 305.771C233.682 304.835 224.157 303.149 214.625 301.701C205.093 300.254 195.628 298.726 186.17 296.96C176.802 295.215 167.544 293.208 158.325 290.826C150.14 288.733 142.118 286.15 134.007 283.738C114.476 277.906 94.4761 273.882 75.7076 265.59C62.6745 259.83 48.3909 250.998 42.7849 237.807C41.2486 248.955 43.5165 260.844 50.3992 271.839C61.2206 288.974 81.3844 299.508 99.6508 306.868C119.319 314.793 140.118 319.913 161.027 323.525C196.116 329.616 232.012 333.258 267.618 332.998C304.13 332.756 350.653 330.046 370.868 294.378C373.695 289.426 375.288 284.427 375.908 279.49L375.873 279.434Z" fill="#C47B38"/>
<g style="mix-blend-mode:overlay" opacity="0.58">
<path d="M235.149 101.819C232.276 102.637 229.525 103.964 226.878 105.458C224.007 107.092 221.255 109.041 218.814 111.302C217.721 112.295 217.812 114.377 218.936 115.31C220.176 116.365 221.782 116.259 222.941 115.186C223.243 114.92 223.488 114.69 223.789 114.424C223.912 114.309 224.034 114.193 224.202 114.089C224.616 113.753 223.968 114.274 224.202 114.089C224.794 113.603 225.376 113.163 226.002 112.733C227.256 111.874 228.555 111.025 229.833 110.267C230.438 109.929 231.044 109.59 231.695 109.262C232.021 109.098 232.346 108.934 232.717 108.78C233.088 108.627 232.976 108.696 232.717 108.78C232.875 108.721 233.032 108.662 233.144 108.592C234.324 108.051 235.528 107.611 236.756 107.274C238.198 106.842 239.12 105.138 238.633 103.731C238.146 102.323 236.58 101.432 235.093 101.854L235.149 101.819Z" fill="#F0ECE6"/>
</g>
<g style="mix-blend-mode:overlay" opacity="0.58">
<path d="M111.309 165.76C117.433 161.67 123.807 158.98 131.13 157.565C132.585 157.28 133.47 155.329 133.007 154.022C132.46 152.457 131.024 151.836 129.467 152.145C121.93 153.654 114.713 156.675 108.355 160.951C107.112 161.765 106.553 163.552 107.446 164.862C108.339 166.172 110.045 166.665 111.355 165.771L111.309 165.76Z" fill="#F0ECE6"/>
</g>
<g style="mix-blend-mode:overlay" opacity="0.58">
<path d="M340.205 238.932C341.847 239.697 343.336 240.714 344.824 241.731C344.377 241.387 345.065 241.93 345.111 241.941C345.317 242.085 345.558 242.284 345.764 242.428C346.211 242.772 346.658 243.115 347.095 243.504C347.978 244.237 348.851 245.015 349.725 245.793C351.46 247.395 352.787 248.902 353.945 250.513C354.525 251.319 355.002 252.149 355.48 252.979C355.55 253.091 355.574 253.193 355.644 253.305C355.515 253.035 355.48 252.979 355.574 253.193C355.668 253.406 355.762 253.62 355.811 253.823C355.954 254.24 356.086 254.702 356.173 255.154C356.492 256.666 358.372 257.438 359.713 257.031C361.312 256.539 361.909 255 361.59 253.488C360.632 248.951 357.046 245.002 353.792 241.896C350.537 238.791 346.946 235.896 342.941 233.958C341.561 233.302 339.836 233.716 339.078 235.122C338.387 236.448 338.814 238.321 340.24 238.988L340.205 238.932Z" fill="#F0ECE6"/>
</g>
<path d="M262.639 202.262C239.348 219.621 206.729 219.809 183.191 202.355C151.602 180.586 170.974 136.381 194.445 116.187C211.495 101.357 233.321 88.4505 256.761 89.0067C267.2 89.8501 272.397 100.262 269.196 109.298C264.595 129.514 236.09 146.429 244.977 167.765C248.262 174.041 255.075 178.117 262.123 179.946C254.896 178.89 247.381 175.562 243.206 168.792C234.671 154.392 246.701 138.491 254.376 126.9C270.28 102.982 267.122 87.9146 235.999 99.811C209.817 109.404 185.444 129.772 176.334 156.611C169.517 173.579 175.088 191.46 191.011 200.864C211.916 215.837 240.531 215.15 262.685 202.272L262.639 202.262Z" fill="black"/>
<path d="M211.728 259.945C251.326 260.851 358.065 252.573 331.225 190.776C313.2 164.44 272.525 158.681 242.476 153.377L242.508 152.618C274.792 152.017 319.4 156.724 337.943 187.016C346.999 203.501 342.444 225.789 328.014 237.585C314.589 249.183 296.935 254.238 280.033 257.502C257.369 261.44 234.459 262.11 211.685 260.75L211.717 259.99L211.728 259.945Z" fill="black"/>
<path d="M179.999 140.012C152.443 143.15 122.42 144.947 99.0753 161.096C72.5583 179.144 73.7332 209.139 100.398 226.744C129.068 245.821 164.114 252.094 197.808 257.382L197.719 258.176C158.522 253.48 90.5657 246.176 74.7011 203.324C66.471 177.922 87.8179 153.878 110.495 145.964C132.886 137.839 156.741 137.437 180.032 139.253L180.044 140.023L179.999 140.012Z" fill="black"/>
<path d="M74.9672 196.818C45.3423 209.686 32.6042 243.687 50.3642 271.783C61.1856 288.918 81.3494 299.452 99.5703 306.801C119.238 314.727 140.037 319.847 160.947 323.458C196.035 329.549 231.932 333.191 267.538 332.931C304.05 332.689 350.572 329.979 370.788 294.312C387.527 264.739 362.065 234.327 337.413 220.018" stroke="black" stroke-width="8.12147" stroke-miterlimit="10"/>
<path d="M325.588 183.905C322.771 186.75 316.734 189.231 314.379 187.821C312.16 186.442 308.661 182.945 307.841 179.878C306.756 175.887 311.007 168.725 311.979 166.601C312.986 164.534 312.995 163.673 316.686 163.045C320.331 162.406 328.226 166.158 330.405 168.533C332.583 170.909 328.415 181.015 325.598 183.86L325.588 183.905Z" fill="#F2B72B"/>
<path d="M319.58 187.495C318.072 188.007 315.727 188.613 314.389 187.775C312.422 186.551 308.961 183.302 307.924 180.137C309.515 176.384 311.695 171.329 314.256 168.76C314.757 168.254 316.431 168.882 317.984 169.003C321.555 169.306 328.061 168.516 328.74 172.605C329.17 175.293 326.095 181.722 324.336 183.519C323.513 184.382 320.859 186.114 319.626 187.506L319.58 187.495Z" fill="#E6AB16"/>
<path d="M318.184 187.938C317.012 188.241 315.385 188.438 314.379 187.821C313.327 187.193 312.097 186.092 311.28 185.279C311.496 183.939 313.235 183.672 314.131 183.113C315.542 182.194 316.178 180.281 317.554 179.306C318.752 178.482 319.737 179.19 319.634 180.46C319.544 181.878 318.283 182.975 318.148 184.382C318.009 185.596 318.752 186.727 318.173 187.983L318.184 187.938Z" fill="#FDC948"/>
<path d="M317.329 167.701C316.356 167.762 314.835 167.505 313.081 168.871C310.275 171.047 312.148 165.874 314.001 164.291C315.307 163.204 318.875 163.314 320.518 163.456C324.27 164.423 328.61 166.774 330.234 168.446C330.375 169.485 329.853 170.083 329.287 170.047C328.335 170.018 326.762 167.304 325.403 166.556" fill="#FDC948"/>
<path d="M314.944 165.181C314.544 165.663 314.676 166.126 314.939 166.234C315.201 166.343 315.435 166.158 315.716 165.983C316.174 165.659 316.738 165.502 317.294 165.583C317.713 165.633 318.36 165.735 318.682 165.378C319.807 164.25 316.132 163.779 314.944 165.181Z" fill="#FFEBC0"/>
<path d="M316.399 188.194C314.997 188.252 314.413 187.877 313.554 187.246C313.484 187.133 313.32 186.808 313.328 186.57C313.503 186.227 313.735 185.849 314.036 185.584C314.337 185.318 314.81 185.14 315.208 185.281C315.516 185.4 315.736 185.691 315.955 185.982C316.385 186.609 316.897 187.495 316.41 188.149L316.399 188.194Z" fill="#FDC948"/>
<path d="M320.075 163.305C323.938 164.203 328.802 166.771 330.405 168.533C332.583 170.909 328.415 181.015 325.598 183.86C323.083 186.439 317.868 188.679 315.186 188.056C314.913 187.993 314.641 187.929 314.4 187.73C312.181 186.351 308.682 182.854 307.862 179.787C306.777 175.796 311.028 168.634 312 166.51C313.007 164.443 313.016 163.582 316.707 162.954C317.61 162.78 318.778 162.908 320.096 163.214M321.248 158.256C319.157 157.77 317.356 157.688 315.809 157.951C310.764 158.841 309.03 160.739 307.587 163.855L307.369 164.38C307.261 164.642 307.085 164.985 306.854 165.363C304.243 170.413 301.554 176.212 302.893 181.173C304.196 186.078 309.012 190.505 311.734 192.192C312.454 192.599 313.195 192.915 314.013 193.105C319.195 194.309 326.185 190.612 329.303 187.501C332.498 184.264 339.519 170.747 334.24 165.014C331.831 162.393 325.985 159.309 321.258 158.211L321.248 158.256Z" fill="black"/>
<path d="M296.751 183.485C296.751 183.485 308.577 180.624 313.375 183.273C318.173 185.922 320.582 194.727 325.492 193.183C330.402 191.639 305.314 208.485 305.314 208.485L296.751 183.485Z" fill="#D38E49"/>
<path d="M291.396 183.44C299.702 177.795 314.114 176.589 319.48 186.896C321.287 189.426 321.967 192.891 325.492 193.183C324.074 194.34 321.665 193.78 320.243 192.683C317.518 190.803 315.693 187.934 313.374 185.957C307.212 181.553 299.284 182.684 291.386 183.485L291.396 183.44Z" fill="black"/>
<path d="M113.284 236.641C110.848 239.91 105.075 243.315 102.499 242.237C100.014 241.18 96.0142 238.189 94.6865 235.244C92.993 231.399 96.2027 223.564 96.9129 221.332C97.623 219.1 97.53 218.263 101.121 217.036C104.757 215.82 113.29 218.473 115.847 220.458C118.404 222.442 115.696 233.27 113.26 236.54L113.284 236.641Z" fill="#F2B72B"/>
<path d="M107.733 241.152C106.308 241.923 103.992 242.823 102.51 242.191C100.322 241.3 96.3249 238.501 94.8259 235.469C95.8468 231.487 97.3421 226.082 99.512 223.134C99.9327 222.561 101.716 222.927 103.311 222.866C106.998 222.668 113.454 220.861 114.72 224.894C115.545 227.531 113.417 234.419 111.879 236.506C111.17 237.492 108.761 239.617 107.723 241.197L107.733 241.152Z" fill="#E6AB16"/>
<path d="M106.386 241.798C105.227 242.248 103.638 242.693 102.499 242.237C101.36 241.78 99.941 240.876 99.0118 240.132C99.0456 238.75 100.746 238.234 101.583 237.518C102.9 236.386 103.218 234.398 104.5 233.21C105.604 232.172 106.712 232.765 106.79 234.078C106.893 235.492 105.771 236.813 105.828 238.217C105.882 239.428 106.783 240.5 106.386 241.798Z" fill="#FDC948"/>
<path d="M102.487 221.668C101.529 221.877 99.9094 221.836 98.3398 223.437C95.8138 226.062 96.9455 220.573 98.5785 218.699C99.7453 217.388 103.383 216.987 105.08 216.902C109.004 217.334 113.785 219.02 115.665 220.416C116.01 221.406 115.512 222.106 114.924 222.161C113.986 222.279 111.976 219.798 110.473 219.257" fill="#FDC948"/>
<path d="M99.6893 219.484C99.3701 220.033 99.5583 220.461 99.831 220.524C100.104 220.587 100.349 220.357 100.538 220.161C100.962 219.78 101.501 219.522 102.078 219.512C102.519 219.471 103.187 219.482 103.464 219.115C104.438 217.807 100.636 217.883 99.6438 219.474L99.6893 219.484Z" fill="#FFEBC0"/>
<path d="M104.629 242.348C103.184 242.588 102.569 242.349 101.597 241.788C101.472 241.711 101.308 241.385 101.27 241.136C101.41 240.737 101.596 240.349 101.852 240.073C102.118 239.751 102.601 239.528 103.01 239.623C103.329 239.697 103.605 239.953 103.824 240.244C104.366 240.801 104.99 241.617 104.629 242.348Z" fill="#FDC948"/>
<path d="M108.077 217.406C111.258 218.145 114.46 219.416 115.871 220.559C118.417 222.589 115.721 233.372 113.284 236.641C110.981 239.749 105.635 242.966 102.908 242.332C102.772 242.3 102.635 242.269 102.499 242.237C100.014 241.18 96.0141 238.189 94.6864 235.244C92.9929 231.399 96.2026 223.564 96.9127 221.332C97.6229 219.1 97.5299 218.263 101.12 217.036C102.776 216.51 105.405 216.738 108.042 217.35M109.176 212.676C105.221 211.757 101.983 211.676 99.596 212.463C94.7772 214.028 93.4064 216.011 92.432 219.38L92.3052 219.926C92.1964 220.188 92.0558 220.587 91.9047 221.031C90.0246 226.443 88.1677 232.579 90.2482 237.233C92.2937 241.831 97.674 245.478 100.638 246.742C100.991 246.872 101.389 247.013 101.798 247.108C107.207 248.364 114.336 243.453 117.204 239.565C119.917 235.929 124.967 221.618 118.955 216.77C116.569 214.873 112.403 213.426 109.221 212.686L109.176 212.676Z" fill="black"/>
<path d="M82.6895 235.333C82.6895 235.333 96.5931 232.811 101.946 236.164C107.299 239.517 108.813 248.258 114.882 247.703C120.951 247.147 88.6606 258.293 88.6606 258.293L82.6895 235.333Z" fill="#D38E49"/>
<path d="M75.4597 235.523C84.2748 230.572 96.5052 228.86 105.084 235.647C111.389 240.467 114.187 247.397 119.123 252.955C120.701 254.616 122.724 255.805 125.292 255.682C122.978 256.774 119.978 256.078 117.837 254.573C111.87 250.358 107.939 243.357 102.326 239.272C94.7625 233.68 84.628 234.825 75.4597 235.523Z" fill="black"/>
</svg>
