<svg width="94" height="149" viewBox="0 0 94 149" fill="none" xmlns="http://www.w3.org/2000/svg">
<path d="M88.72 112.76L10.88 148.15C5.71 150.15 0 146.64 0 141.46V42.6499C0 39.7299 1.9 37.0899 4.82 35.9599L82.67 0.569921C87.84 -1.43008 93.55 2.07992 93.55 7.25992V106.06C93.55 108.98 91.65 111.62 88.73 112.75L88.72 112.76Z" fill="#DEDC00"/>
<path d="M11.38 46.11L24.11 40.43C26.54 39.35 27.29 40.51 27.29 43.27V93.04C27.29 95.22 26.22 97.56 23.64 98.71L16.24 102.01V107.55L11.38 109.72V46.11ZM22.5 95.03V45.48L16.24 48.27V97.82L22.5 95.03Z" fill="#E6007E"/>
<path d="M45.89 30.72V89.93C45.89 92.47 44.53 94.93 41.85 96.13L33.55 99.83C31.3 100.83 29.54 100.29 29.54 97.4V38.01L34.37 35.86V95.1L41.06 92.12V32.87L45.89 30.72Z" fill="#E6007E"/>
<path d="M53.36 31.71L47.5 34.33V30L64.06 22.62V26.95L58.23 29.55V88.83L53.37 91V31.71H53.36Z" fill="#E6007E"/>
<path d="M65.7 85.49V26C65.7 23.32 67.02 21.3 69.49 20.2L78.47 16.2C80.94 15.1 82.19 16.04 82.19 18.94V78.15L77.36 80.3V75.44L70.53 78.49V83.35L65.7 85.5V85.49ZM70.53 74.36L77.36 71.31V21.05L70.53 24.1V74.37V74.36Z" fill="#E6007E"/>
<path d="M24.84 114.34C24.47 116.15 24.12 117.92 23.88 119.01L21.59 130.15L17.47 131.99L15.16 122.93C14.92 121.97 14.55 120.44 14.12 118.88C14.23 120.69 14.31 133.4 14.31 133.4L11.01 134.87V115.67L15.88 113.5L19.47 127.02L19.66 126.94L23.12 110.27L27.99 108.1V127.3L24.72 128.76C24.72 128.76 24.77 116.18 24.85 114.34H24.84Z" fill="#662483"/>
<path d="M30.05 107.17L40.61 102.46V105.69L33.67 108.79V112.84L38.64 110.62V113.82L33.67 116.04V121.54L40.61 118.44V121.67L30.05 126.38V107.18V107.17Z" fill="#662483"/>
<path d="M42.29 120.91V101.71L51.81 97.46C53.57 96.68 54.26 97.41 54.26 99.49V104C54.26 105.7 53.75 106.82 52.53 107.62L54.34 115.54L50.72 117.15L49.04 109.17L45.9 110.57V119.29L42.28 120.9L42.29 120.91ZM50.69 105.24V101.33L45.9 103.47V107.38L50.69 105.24Z" fill="#662483"/>
<path d="M56.15 95.53L65.62 91.31C67.72 90.37 68.28 91.49 68.28 93.71V105.96C68.28 107.66 67.38 109.73 65.19 110.7L56.15 114.73V95.53ZM64.69 107.58V95.08L59.77 97.2699V109.77L64.69 107.58Z" fill="#662483"/>
<path d="M70.27 108.43V92.38C70.27 90.33 71.25 88.8 73.09 87.98L79.77 85C81.61 84.18 82.54 84.92 82.54 87.13V102.96L78.95 104.56V95.78L73.87 98.05V106.83L70.28 108.43H70.27ZM73.86 94.91L78.94 92.64V88.7L73.86 90.97V94.91Z" fill="#662483"/>
</svg>
